<?xml version="1.0" encoding="UTF-8"?>
<svg id="Layer_1" data-name="Layer 1" xmlns="http://www.w3.org/2000/svg" viewBox="0 0 45.09 45.11">
  <path d="m0,20.38C0,16.83.02,13.28,0,9.73c-.01-2.83.11-5.36,2.28-7.46C4.4.22,6.86.13,9.64.14c2.93,0,6.53-.6,9.28.64,1.17.53,2.1,1.35,2.91,2.33.4.48.79,1.31,1.33,1.63.63.37,1.53.18,2.23.18,3.65-.02,7.3-.04,10.96,0,2.64.03,5.05.51,6.82,2.64,2.14,2.58,1.81,5.57,1.81,8.72,0,3.6,0,7.2,0,10.81,0,.61.37,3.82-.25,4.03-.44.15-1.58-.38-2.04-.48-.75-.17-1.57-.25-2.28-.54-2.57-1.04-1.56-4.84-3.08-6.77-1.54-1.96-4.59-1.8-5.94.28-.77,1.18-.88,2.78-1.2,4.13-.37,1.57-1.01,2.23-2.59,2.6-2.47.57-5.81.99-5.83,4.26-.02,3.18,3.18,3.69,5.6,4.23.37.08,3.2.9,2.4,1.76-.25.27-1.71.04-2.1.04-.92,0-1.85,0-2.77,0-3.97,0-7.94,0-11.92,0-3.15,0-6.82.58-9.6-1.22C.99,37.84,0,35.26,0,32.5,0,28.46,0,24.42,0,20.38Z"/>
  <path d="m23.96,34.57c.03-2.17,4.08-1.95,5.53-2.55,2.11-.87,2.56-2.77,3.02-4.8.2-.88.26-2.35,1.1-2.9.78-.51,1.76-.19,2.2.57,1.13,1.92.48,4.48,2.19,6.18,1.66,1.65,4.1,1.15,6.04,2.11.8.39,1.2,1.32.76,2.15-.51.96-2.02,1.01-2.96,1.23-2.01.46-3.89.9-4.78,2.97-.61,1.44-.41,5.57-2.59,5.58-2.28,0-1.99-4.48-2.8-5.99-1.26-2.34-4.18-2.46-6.48-3.01-.8-.19-1.24-.77-1.23-1.54Z"/>
</svg>