<?xml version="1.0" encoding="UTF-8"?>
<svg id="Layer_2" data-name="Layer 2" xmlns="http://www.w3.org/2000/svg" viewBox="0 0 45.2 45.11">
  <path d="m22.65,27.68c-7.24,0-14.49,0-21.73,0q-.82,0-.82-.79c0-7.25,0-14.49,0-21.74,0-1.81,1.02-2.82,2.84-2.83,13.14,0,26.28,0,39.43,0,1.82,0,2.84,1.02,2.84,2.82,0,7.25,0,14.49,0,21.74q0,.79-.82.79c-7.24,0-14.49,0-21.73,0Z"/>
  <path d="m22.66,28.31c7.26,0,14.52,0,21.78,0q.77,0,.77.79c0,1.01,0,2.03,0,3.04,0,1.79-1.01,2.8-2.79,2.8-5.88,0-11.76,0-17.65,0-7.32,0-14.65,0-21.97,0-1.34,0-2.33-.73-2.62-1.93-.05-.19-.06-.39-.06-.58,0-1.18.01-2.36-.01-3.53,0-.45.14-.59.59-.59,2.85.02,5.7,0,8.55,0,4.47,0,8.95,0,13.42,0Zm-1.17,3.29c0,.66.51,1.2,1.15,1.21,1.11.02,1.57-1.46.74-2.13-.76-.6-1.89-.04-1.9.91Z"/>
  <path d="m22.65,43.17c-1.79,0-3.58,0-5.37,0-1.04,0-2.94.32-3.14-1.16-.21-1.6,1.7-1.5,2.74-1.5,1.83,0,3.66,0,5.49,0,1.74,0,3.48,0,5.22,0,1.1,0,3.49-.41,3.58,1.25.09,1.72-2.19,1.4-3.26,1.4-1.75,0-3.5,0-5.26,0Z"/>
  <path d="m22.62,39.93c-1.57,0-3.14,0-4.71,0-.6,0-.64-.06-.54-.66.18-1.06.37-2.12.54-3.18.06-.37.21-.52.61-.52,2.77.01,5.53.01,8.3,0,.37,0,.53.14.58.49.18,1.11.37,2.22.57,3.33.08.42-.08.56-.49.55-1.62-.01-3.24,0-4.86,0Z"/>
</svg>