<?xml version="1.0" encoding="UTF-8"?>
<svg id="Layer_2" data-name="Layer 2" xmlns="http://www.w3.org/2000/svg" viewBox="0 0 45.09 45.11">
  <path d="m.68,16.58c0-1.03,0-2.07,0-3.1.64-3.39,1.55-6.47,4.05-8.99,1.97-1.98,4.58-3.04,7.35-3.18,2.38-.12,4.79.56,6.56,2.21.96.89,1.68,2.02,2.14,3.24.59,1.54-.17,2.57-.82,3.96-.84,1.79-1.75,3.58-2.52,5.4-.51,1.21-.65,2.52-.17,3.77.88,2.27,3.52,3.44,5.81,2.67,3.12-1.06,3.47-4.82,5.15-7.2.47-.67.65-.23,1.25.27.63.53,1.26,1.05,1.9,1.58,1.32,1.1,2.64,2.2,3.97,3.3,1.38,1.13,2.79,2.21,4.07,3.46.99.97,2.27,2.14,2.74,3.47,1.13,3.13-2.43,5.1-4.94,3.69,1.3,2.98-1.67,5.48-4.44,3.88,1.14,3.04-1.9,5.47-4.64,3.78.58,1.99-.07,4.14-2.39,4.48-1.14.17-2.02-.34-2.85-1.06-.45-.39-.88-.8-1.36-1.17-.26-.2-1-.52-1.04-.85-.04-.35.73-1,.96-1.26.37-.44.78-.89,1.04-1.4.45-.9.42-1.97-.09-2.84-.48-.82-1.34-1.38-2.29-1.48-.49-.05-.99.03-1.44.22-.36.15-.72.6-1.1.65,1.8-3.21-1.7-6.12-4.61-3.97.42-1.24.74-2.61-.21-3.68-1.21-1.37-2.96-1.33-4.38-.32-.13-.4.39-1.35.37-1.85-.03-.65-.26-1.25-.68-1.74-.86-1.03-2.31-1.34-3.53-.8-.36.16-.67.38-.95.65-.17.16-.42.65-.64.69-.42.08-.88-1.32-1.01-1.61-.67-1.55-1.04-3.19-1.27-4.86Z"/>
  <path d="m43.64,12.16c0,3.65-.86,6.2-2.14,8.63-.14.27-.3.54-.45.8-.26.45-.29.45-.68.12-1.43-1.2-2.87-2.41-4.3-3.62-2.3-1.93-4.59-3.87-6.9-5.8-.97-.81-2.07-.59-2.64.53-1.04,2.04-2.07,4.09-3.11,6.13-.45.89-1.33,1.33-2.21,1.14-1.25-.27-1.88-1.54-1.34-2.74.68-1.5,1.39-2.99,2.08-4.48.5-1.06.98-2.13,1.5-3.18.27-.55.41-1.12.58-1.7.56-2.02,1.54-3.78,3.34-4.97,3.3-2.19,6.73-2.15,10.12-.32,4.07,2.19,6.02,5.74,6.14,9.46Z"/>
  <path d="m2.57,26.6c-.06-.89,1.31-2.13,1.89-2.73.68-.71,1.77-1.02,2.39,0,.62,1.02-.36,1.91-.98,2.64-.63.75-1.37,1.86-2.5,1.38-.52-.22-.8-.66-.8-1.29Z"/>
  <path d="m21.02,36.5c.02.82-1.3,2.01-1.84,2.57-.62.66-1.57,1.06-2.3.27-.82-.89,0-1.85.61-2.57.66-.79,1.46-2.16,2.67-1.68.52.2.85.7.85,1.42Z"/>
  <path d="m11.6,28.62c.05.93-1.52,2.58-2.21,3.08-.81.59-2.09.28-2.26-.81-.17-1.08,1.27-2.34,1.94-3.05.86-.91,2.54-.75,2.54.77Z"/>
  <path d="m11.88,34.47c-.02-.64.51-1.11.89-1.56.42-.5.84-1.19,1.38-1.57.97-.68,2.35.01,2.2,1.24-.1.9-1.62,2.63-2.39,3.07-.93.53-2.09-.11-2.07-1.19Z"/>
</svg>