<svg version="1.1" id="Layer_1" xmlns="http://www.w3.org/2000/svg" xmlns:xlink="http://www.w3.org/1999/xlink"
			x="0px" y="0px" viewBox="0 0 100 100" style="enable-background:new 0 0 100 100;" xml:space="preserve">
			<style type="text/css">
				.st0 {
					fill: #FFFFFF;
				}

				.st1 {
					fill: none;
					stroke: #FFFFFF;
					stroke-width: 0.75;
					stroke-miterlimit: 10;
				}
			</style>
			<g>
				<g>
					<path class="st0"
						d="M50.46,86.78C50,87,26.16,74.22,23.28,72.95c-0.07-0.03-0.14-0.06-0.21-0.1c-2.5-1.42-4.05-4.07-4.05-6.95
			   l0-28.29c-0.27-6.66,8.07-10.88,13.12-6.37c0.03,0,39.2,35.22,39.24,35.25c1.06,0.92,3.17,0.5,3.17-0.76
			   c0-6.76,0.42-28.29,0.21-32.14c-0.04-0.74-0.4-1.43-1.04-1.8l-21.98-9.79c-0.08-0.06-0.23-0.09-0.44-0.08
			   c-0.45,0.02-0.82,0.3-1.19,0.57c-2.58,1.86-11.6,9.54-11.6,9.54c-1.1,1.27-4.11-2.57-4.21-2.7c-0.28-0.34-0.41-1.02-0.03-1.42
			   L44,20c0.19-0.2,3.82-3.27,3.83-3.27c2.17-1.73,4.95-0.97,6.84,0.12l21.98,9.79c2.5,1.44,4.03,4.09,4.03,6.94l0,31.04
			   c0.27,6.66-8.07,10.88-13.12,6.37c0,0.02-39.21-35.24-39.24-35.25c-1.59-1.07-3.21-0.26-3.38,1.62c0,0,0,28.52,0,28.52
			   c0,0.78,0.43,1.5,1.12,1.87L49.48,80.2c0,0,0.01,0,0.01,0.01c0.53,0.27,1.05,0.17,1.51-0.21c0.26-0.22,10.52-8.69,10.52-8.69
			   c0.36-0.42,0.95-0.41,1.4-0.11c0.64,0.43,3.18,2.54,3.12,3.91C66.03,75.6,55,85,54.24,85.66C52.87,86.87,52,87,50.46,86.78z" />
				</g>
				<g>
					<path class="st0" d="M34.18,68.54l-0.24-22.95c-0.01-0.51,0.64-0.78,1.04-0.44l4.09,3.53c0.61,0.52,0.96,1.26,0.96,2.04
			   l0.24,20.69c0.01,0.46-0.53,0.75-0.95,0.5l-4.84-2.88C34.29,68.93,34.18,68.74,34.18,68.54z" />
				</g>
			</g>
			<path class="st1" d="M82.49,77.45L56.63,92.61c-4.11,2.41-9.2,2.41-13.32,0L17.45,77.45c-4.03-2.36-6.51-6.68-6.51-11.36V35.42
	   c0-4.67,2.48-8.99,6.51-11.36L43.32,8.9c4.11-2.41,9.2-2.41,13.32,0l25.86,15.16C86.52,26.43,89,30.75,89,35.42v30.67
	   C89,70.76,86.52,75.09,82.49,77.45z" />
		</svg>